<?xml version="1.0" encoding="utf-8"?>
<!-- Generator: Adobe Illustrator 26.5.0, SVG Export Plug-In . SVG Version: 6.00 Build 0)  -->
<svg version="1.1" id="Layer_1" xmlns="http://www.w3.org/2000/svg" xmlns:xlink="http://www.w3.org/1999/xlink" x="0px" y="0px"
	 viewBox="0 0 595.28 595.28" style="enable-background:new 0 0 595.28 595.28;" xml:space="preserve">
<style type="text/css">
	.st0{fill:#FFFFFF;}
</style>
<path d="M396.12,252.13c-13,1.43-25.99,2.85-38.99,4.28c29.8-53.92,59.88-107.68,90.25-161.27c7.58-13.39,15.77-27.37,29.06-35.12
	c5.85-3.41,12.84-5.46,19.43-3.94c12.66,2.92,19.18,18.16,17.08,30.98c-2.1,12.82-10.38,23.65-18.4,33.87
	C459.19,166.06,423.82,211.19,396.12,252.13z"/>
<path d="M116.37,242.96c0,0-8.13,29.08,175.86,29.08c174.68,0,182.82-26.1,182.82-26.1v234.6c0,0-26.59,38.56-186.42,32.93
	c-140.65-4.95-173.06-30.51-173.06-30.51L116.37,242.96z"/>
<path d="M127.44,311.54c-26.12-5-47-28.06-73.44-24.48c-21.25,2.87-33.86,22.16-37.48,40.14c-3.42,17.01-1.66,34.75,5.07,51.04
	c11.2,27.1,39.99,51.05,73.88,50.95c10.44-0.03,21.24-2.51,28.94-8.49c7.7-5.98,11.56-15.88,7.67-24.1
	c-21.97,6.41-47.98,1.49-64.65-12.22c-16.67-13.72-23.25-35.59-16.34-54.4c1.27-3.46,3.05-6.92,6.18-9.38
	c9.1-7.15,23.74-2.71,34.61,2.37C107.88,330.43,123.44,338.56,127.44,311.54z"/>
<path d="M465.93,311.54c26.12-5,47-28.06,73.44-24.48c21.25,2.87,33.86,22.16,37.48,40.14c3.42,17.01,1.66,34.75-5.07,51.04
	c-11.2,27.1-39.99,51.05-73.88,50.95c-10.44-0.03-21.24-2.51-28.94-8.49c-7.7-5.98-11.56-15.88-7.67-24.1
	c21.97,6.41,47.98,1.49,64.65-12.22c16.67-13.72,23.25-35.59,16.34-54.4c-1.27-3.46-3.05-6.92-6.18-9.38
	c-9.1-7.15-23.74-2.71-34.61,2.37C485.49,330.43,469.93,338.56,465.93,311.54z"/>
<path class="st0" d="M128.89,263.74c2.18,34.35,4.35,68.7,6.53,103.05c0.08,1.33,0.21,2.78,1.11,3.77c0.86,0.95,2.22,1.23,3.49,1.42
	c4.8,0.71,9.7,0.8,14.52,0.24c0.07-14.55,0.14-29.1,0.22-43.65c6.54,2.78,14.48,5.46,20.33,1.43c4.95-3.4,6.09-10.11,6.68-16.09
	c0.96-9.74,1.59-19.5,1.88-29.28c0.04-1.46,0.05-3.03-0.8-4.22c-1.04-1.46-2.99-1.86-4.76-2.1c-9.05-1.26-18.26-1.42-27.2-3.31
	C141.95,273.11,133.02,269.2,128.89,263.74z"/>
<path class="st0" d="M178.55,373.37c10.05-29.47,17.58-59.81,22.46-90.56c5.89-0.23,11.8-0.07,17.67,0.48
	c2.25,0.21,4.77,0.63,6.08,2.47c0.81,1.14,0.98,2.6,1.11,4c2.7,29.59-1.85,60.03,5.85,88.73c-5.94,0-11.88,0-17.82,0.01
	c-0.18-8.93-0.45-18.23-4.59-26.14c-2.45-4.69-9.04-8.8-12.52-4.83c-0.98,6.24-1.96,12.49-2.94,18.73
	c-0.24,1.54-0.55,3.21-1.71,4.25c-0.94,0.85-2.26,1.1-3.5,1.33C184.37,372.6,180.1,373.36,178.55,373.37z"/>
<path class="st0" d="M251.47,380.79c-2.1-33.36-4.21-66.72-6.31-100.08c6.53,0.53,13.06,1.06,19.59,1.58
	c0.66,21.77,3.84,43.47,9.46,64.51c4.24-21.31,6.52-43,6.8-64.73c5.82-0.01,11.64-0.01,17.45-0.02
	c-2.57,31.02-3.67,62.16-3.29,93.29c-7,0.18-13.99,0.36-20.99,0.54c-5.07-9.05-10.13-18.1-15.2-27.15
	c0.65,10.48,2.13,20.9,4.42,31.14C259.91,379.03,256.18,379.11,251.47,380.79z"/>
<path class="st0" d="M307.32,284.28c-1.5,8.38-0.82,19.04-2.32,27.41c2.56-3.09,11.05-4.02,13.35-0.74
	c2.31,3.28,2.39,7.58,2.39,11.59c0,19.62,0,39.24,0,58.87c6.66-1.29,13.42-2.01,20.2-2.16c-0.18-22.5-2.34-44.98-6.42-67.11
	c5.4,0.1,15.27-1.33,20.68-1.23c-0.18-8.41,0.29-14.66-1.47-22.88C342.05,288.01,319.21,287.38,307.32,284.28z"/>
<path class="st0" d="M364.49,290.4c0.99,31.84,1.1,63.71,0.35,95.56c5.88-2.53,12.09-4.31,18.42-5.28
	c0.5-10.73-0.02-21.51-1.54-32.14c3.9,10.74,7.8,21.47,11.7,32.21c0.54,1.48,1.18,3.09,2.57,3.85c1.16,0.63,2.57,0.52,3.88,0.38
	c5.91-0.61,11.82-1.22,17.73-1.82c-8.45-13.72-17.73-26.93-27.77-39.53c4.44,5.55,14.08,3.37,18.29-2.35s4.55-13.33,4.72-20.43
	c0.25-10.38-0.07-22.16-7.78-29.11c-5.3-4.78-12.95-6.02-20.07-5.58C377.86,286.58,370.9,288.47,364.49,290.4z"/>
<path class="st0" d="M419.16,283.56c2.43,15.65,9.57,30.14,13.88,45.38c5.67,20.06,6.35,41.52,1.95,61.9c5-0.88,10-1.76,15-2.64
	c0.12-11.2-0.45-22.4-1.71-33.53c-0.74-6.6-1.73-13.24-1.05-19.84c0.53-5.17,2.07-10.17,3.6-15.13
	c6.14-19.91,12.28-39.82,18.42-59.72c-5.4,5.56-15.42,4.96-20.04,11.19c-1.44,1.94-2.14,4.3-2.82,6.62
	c-3.04,10.38-6.08,20.76-9.13,31.14c-3.78-12.03-9.19-23.55-16.04-34.14c-4.77,0.71-9.54,1.41-14.32,2.12
	C417.41,290.8,426.91,305.45,419.16,283.56z"/>
<path class="st0" d="M180.17,423.32c3.81-11.11,1.72-24.52-6.72-32.69c-8.43-8.17-23.29-9.41-31.91-1.43
	c-6.86,6.35-8.59,16.38-9.48,25.68c-1.35,14.14-1.65,28.37-0.89,42.55c0.26,4.92,0.7,9.99,3,14.34c3.7,6.99,11.49,10.81,19.12,12.91
	c6.12,1.69,12.7,2.57,18.78,0.75c6.08-1.82,11.52-6.85,12.27-13.16c0.36-3.01-0.55-6.39-3.07-8.08c-1.29-0.86-2.85-1.2-4.38-1.52
	c-4.02-0.84-8.04-1.68-12.05-2.51c1.45,4.73-3.29,9.76-8.23,9.74c-4.94-0.02-9.24-3.88-11.2-8.42c-1.96-4.54-2.01-9.65-1.81-14.59
	c0.58-14.28,3.05-28.48,7.28-42.13c1.3-4.21,4.3-9.28,8.59-8.32c2.55,0.58,4.08,3.15,5.14,5.54c3.56,8.1,5.14,17.07,4.54,25.91
	C173.85,428.16,178.83,427.23,180.17,423.32z"/>
<path class="st0" d="M199.54,398.39c-2.02,32.52-4.03,65.04-6.05,97.56c6.56,0.27,13.11,0.54,19.67,0.81
	c-0.22-9.49-0.04-18.98,0.53-28.46c4.08-0.26,8.17-0.53,12.25-0.79c0.34,9.06,0.69,18.13,1.03,27.19c0.04,1.13,0.12,2.35,0.85,3.21
	c0.85,1,2.28,1.2,3.59,1.32c5.05,0.5,10.1,0.99,15.15,1.49c0.48-37.39,0.95-74.79,1.43-112.18c-4.41-0.53-8.92-0.21-13.21,0.96
	c-0.43,20.76-1.59,41.51-3.47,62.19c-5.66,0.89-11.45,0.96-17.13,0.21c0.9-20.84,1.8-41.68,2.71-62.52
	c-6.27,0.5-12.53,0.99-18.8,1.49C198.05,395.14,198.01,399.4,199.54,398.39z"/>
<path class="st0" d="M261.75,393.02c-1.14,37.47-0.73,75,1.23,112.44c13.33-0.42,26.65-1.58,39.85-3.48
	c0.05-5.77,0.1-11.55,0.15-17.32c-8.49,0.93-16.93,2.25-25.3,3.97c-0.4-7.97-0.81-15.93-1.22-23.9c7.36-0.95,14.72-1.9,22.08-2.85
	c0.49-5.69,0.98-11.38,1.48-17.06c-7.58,3.07-15.8,4.55-23.97,4.31c-0.42-14.71-0.84-29.42-1.26-44.13
	c8.64,0.97,17.42,0.66,25.96-0.94c0.78-5.18,0.96-10.46,0.52-15.68C287.32,388.33,273.36,389.98,261.75,393.02z"/>
<path class="st0" d="M345.63,397.35c-10.32-0.14-19.23,8.17-23.11,17.73s-3.79,20.21-3.64,30.53c0.1,6.64,0.19,13.27,0.29,19.91
	c0.14,9.34,0.59,19.56,6.78,26.56c5.42,6.13,13.96,8.29,22.03,9.67c6.55,1.12,13.37,1.91,19.75,0.05
	c13.41-3.91,21.24-20.84,15.53-33.59c-3.28-1.57-6.95-2.31-10.58-2.12c-0.16,8.48-6.26,16.52-14.39,18.94
	c-8.13,2.42-17.64-0.97-22.41-7.98c-4.18-6.14-4.64-14-4.96-21.42c-0.56-12.86-0.89-26.66,6.1-37.46c2.22-3.43,5.5-6.61,9.58-6.95
	c6.51-0.53,11.11,6.01,14.26,11.72"/>
<path class="st0" d="M393.1,403.67c3.66,31.9,5.57,64,5.72,96.11c6.5-1.45,13.13-2.32,19.78-2.6c0.3-14.96-0.51-29.94-2.44-44.78
	c7.6,9.91,16.22,19.05,25.67,27.22c2.89,2.5,6.08,5.01,9.87,5.53c7.3,0.99,13.76-5.64,21.13-5.58
	c-12.78-9.64-25.72-19.06-38.83-28.26c14.47-16.63,26.87-35.06,36.83-54.73c-5.7,0.64-11.4,1.27-17.1,1.91
	c-1.73,0.19-3.5,0.4-5.04,1.2c-2.38,1.24-3.83,3.69-5.23,5.99c-7.16,11.77-16.01,22.52-26.18,31.82c0.9-10.86,0.38-21.84-1.55-32.56
	C408.31,404.8,400.88,404.51,393.1,403.67z"/>
<path class="st0" d="M128.89,263.74c2.18,34.35,4.35,68.7,6.53,103.05c0.08,1.33,0.21,2.78,1.11,3.77c0.86,0.95,2.22,1.23,3.49,1.42
	c4.8,0.71,9.7,0.8,14.52,0.24c0.07-14.55,0.14-29.1,0.22-43.65c6.54,2.78,14.48,5.46,20.33,1.43c4.95-3.4,6.09-10.11,6.68-16.09
	c0.96-9.74,1.59-19.5,1.88-29.28c0.04-1.46,0.05-3.03-0.8-4.22c-1.04-1.46-2.99-1.86-4.76-2.1c-9.05-1.26-18.26-1.42-27.2-3.31
	C141.95,273.11,133.02,269.2,128.89,263.74z"/>
<path class="st0" d="M178.55,373.37c10.05-29.47,17.58-59.81,22.46-90.56c5.89-0.23,11.8-0.07,17.67,0.48
	c2.25,0.21,4.77,0.63,6.08,2.47c0.81,1.14,0.98,2.6,1.11,4c2.7,29.59-1.85,60.03,5.85,88.73c-5.94,0-11.88,0-17.82,0.01
	c-0.18-8.93-0.45-18.23-4.59-26.14c-2.45-4.69-9.04-8.8-12.52-4.83c-0.98,6.24-1.96,12.49-2.94,18.73
	c-0.24,1.54-0.55,3.21-1.71,4.25c-0.94,0.85-2.26,1.1-3.5,1.33C184.37,372.6,180.1,373.36,178.55,373.37z"/>
<path class="st0" d="M251.47,380.79c-2.1-33.36-4.21-66.72-6.31-100.08c6.53,0.53,13.06,1.06,19.59,1.58
	c0.66,21.77,3.84,43.47,9.46,64.51c4.24-21.31,6.52-43,6.8-64.73c5.82-0.01,11.64-0.01,17.45-0.02
	c-2.57,31.02-3.67,62.16-3.29,93.29c-7,0.18-13.99,0.36-20.99,0.54c-5.07-9.05-10.13-18.1-15.2-27.15
	c0.65,10.48,2.13,20.9,4.42,31.14C259.91,379.03,256.18,379.11,251.47,380.79z"/>
<path class="st0" d="M364.49,290.4c0.99,31.84,1.1,63.71,0.35,95.56c5.88-2.53,12.09-4.31,18.42-5.28
	c0.5-10.73-0.02-21.51-1.54-32.14c3.9,10.74,7.8,21.47,11.7,32.21c0.54,1.48,1.18,3.09,2.57,3.85c1.16,0.63,2.57,0.52,3.88,0.38
	c5.91-0.61,11.82-1.22,17.73-1.82c-8.45-13.72-17.73-26.93-27.77-39.53c4.44,5.55,14.08,3.37,18.29-2.35s4.55-13.33,4.72-20.43
	c0.25-10.38-0.07-22.16-7.78-29.11c-5.3-4.78-12.95-6.02-20.07-5.58C377.86,286.58,370.9,288.47,364.49,290.4z"/>
<path class="st0" d="M433.04,328.94c5.67,20.06,6.35,41.52,1.95,61.9c5-0.88,10-1.76,15-2.64c0.12-11.2-0.45-22.4-1.71-33.53
	c-0.74-6.6-1.73-13.24-1.05-19.84c0.53-5.17,2.07-10.17,3.6-15.13c6.14-19.91,12.28-39.82,18.42-59.72
	c-5.4,5.56-15.42,4.96-20.04,11.19c-1.44,1.94-2.14,4.3-2.82,6.62c-3.04,10.38-6.08,20.76-9.13,31.14
	c-3.78-12.03-9.19-23.55-16.04-34.14c-4.77,0.71-9.54,1.41-14.32,2.12"/>
<path class="st0" d="M180.17,423.32c3.81-11.11,1.72-24.52-6.72-32.69c-8.43-8.17-23.29-9.41-31.91-1.43
	c-6.86,6.35-8.59,16.38-9.48,25.68c-1.35,14.14-1.65,28.37-0.89,42.55c0.26,4.92,0.7,9.99,3,14.34c3.7,6.99,11.49,10.81,19.12,12.91
	c6.12,1.69,12.7,2.57,18.78,0.75c6.08-1.82,11.52-6.85,12.27-13.16c0.36-3.01-0.55-6.39-3.07-8.08c-1.29-0.86-2.85-1.2-4.38-1.52
	c-4.02-0.84-8.04-1.68-12.05-2.51c1.45,4.73-3.29,9.76-8.23,9.74c-4.94-0.02-9.24-3.88-11.2-8.42c-1.96-4.54-2.01-9.65-1.81-14.59
	c0.58-14.28,3.05-28.48,7.28-42.13c1.3-4.21,4.3-9.28,8.59-8.32c2.55,0.58,4.08,3.15,5.14,5.54c3.56,8.1,5.14,17.07,4.54,25.91
	C173.85,428.16,178.83,427.23,180.17,423.32z"/>
<path class="st0" d="M193.49,495.96c6.56,0.27,13.11,0.54,19.67,0.81c-0.22-9.49-0.04-18.98,0.53-28.46
	c4.08-0.26,8.17-0.53,12.25-0.79c0.34,9.06,0.69,18.13,1.03,27.19c0.04,1.13,0.12,2.35,0.85,3.21c0.85,1,2.28,1.2,3.59,1.32
	c5.05,0.5,10.1,0.99,15.15,1.49c0.48-37.39,0.95-74.79,1.43-112.18c-4.41-0.53-8.92-0.21-13.21,0.96
	c-0.43,20.76-1.59,41.51-3.47,62.19c-5.66,0.89-11.45,0.96-17.13,0.21c0.9-20.84,1.8-41.68,2.71-62.52
	c-6.27,0.5-12.53,0.99-18.8,1.49"/>
<path class="st0" d="M261.75,393.02c-1.14,37.47-0.73,75,1.23,112.44c13.33-0.42,26.65-1.58,39.85-3.48
	c0.05-5.77,0.1-11.55,0.15-17.32c-8.49,0.93-16.93,2.25-25.3,3.97c-0.4-7.97-0.81-15.93-1.22-23.9c7.36-0.95,14.72-1.9,22.08-2.85
	c0.49-5.69,0.98-11.38,1.48-17.06c-7.58,3.07-15.8,4.55-23.97,4.31c-0.42-14.71-0.84-29.42-1.26-44.13
	c8.64,0.97,17.42,0.66,25.96-0.94c0.78-5.18,0.96-10.46,0.52-15.68C287.32,388.33,273.36,389.98,261.75,393.02z"/>
<path class="st0" d="M360.87,422.91c-1.75-6.29-7.76-12.25-14.26-11.72c-4.07,0.33-7.36,3.51-9.58,6.95
	c-6.99,10.81-6.67,24.61-6.1,37.46c0.33,7.42,0.79,15.27,4.96,21.42c4.77,7.01,14.28,10.4,22.41,7.98
	c8.13-2.42,14.24-10.46,14.39-18.94c3.63-0.18,7.3,0.55,10.58,2.12c5.71,12.76-2.12,29.68-15.53,33.59
	c-6.38,1.86-13.2,1.07-19.75-0.05c-8.06-1.38-16.61-3.53-22.03-9.67c-6.19-7-6.64-17.22-6.78-26.56c-0.1-6.64-0.19-13.27-0.29-19.91
	c-0.15-10.32-0.24-20.96,3.64-30.53s12.79-17.87,23.11-17.73c0,0,16.22-1.34,22.02,11.42c5.8,12.76,6.19,22.04,6.19,22.04
	S364.91,437.45,360.87,422.91z"/>
<path class="st0" d="M393.1,403.67c3.66,31.9,5.57,64,5.72,96.11c6.5-1.45,13.13-2.32,19.78-2.6c0.3-14.96-0.51-29.94-2.44-44.78
	c7.6,9.91,16.22,19.05,25.67,27.22c2.89,2.5,6.08,5.01,9.87,5.53c7.3,0.99,13.76-5.64,21.13-5.58
	c-12.78-9.64-25.72-19.06-38.83-28.26c14.47-16.63,26.87-35.06,36.83-54.73c-5.7,0.64-11.4,1.27-17.1,1.91
	c-1.73,0.19-3.5,0.4-5.04,1.2c-2.38,1.24-3.83,3.69-5.23,5.99c-7.16,11.77-16.01,22.52-26.18,31.82c0.9-10.86,0.38-21.84-1.55-32.56
	C408.31,404.8,400.88,404.51,393.1,403.67z"/>
<path d="M154.75,316.43c4.19,4.67,12.83,4,16.26-1.26c1.52-2.33,2.03-5.17,2.33-7.94c0.52-4.73,0.53-9.52,0.03-14.25
	c-0.08-0.81-0.2-1.67-0.72-2.3c-0.71-0.86-1.94-1.04-3.05-1.15c-4.79-0.5-9.57-1-14.36-1.5"/>
<path d="M210.44,302.74c-2.75,10.34-5.49,20.68-8.24,31.02c3.05,0.35,6.1,0.71,9.14,1.06c0.86,0.1,1.79,0.18,2.52-0.27
	c1.02-0.62,1.24-1.98,1.35-3.17c0.67-7.17,1.05-14.37,1.13-21.57c0.02-1.79-0.01-3.72-1.04-5.19
	C214.28,303.16,211.86,302.55,210.44,302.74z"/>
<path d="M380.86,325.54c-0.01,0.62,0,1.28,0.35,1.79c0.31,0.46,0.84,0.71,1.34,0.93c3.97,1.82,8.54,3.65,12.53,1.89
	c4.06-1.79,5.78-6.57,6.64-10.92c0.79-3.98,1.2-8.16,0.05-12.05c-1.15-3.89-4.15-7.45-8.12-8.26c-2.09-0.43-4.26-0.08-6.35,0.4
	c-2.31,0.53-4.72,1.31-6.25,3.11"/>
</svg>
