<svg width="18" height="22" viewBox="0 0 18 22" fill="none" xmlns="http://www.w3.org/2000/svg">
<path d="M4 20C3.45 20 2.97933 19.8043 2.588 19.413C2.196 19.021 2 18.55 2 18V6C2 5.45 2.196 4.97933 2.588 4.588C2.97933 4.196 3.45 4 4 4H6C6 2.9 6.39167 1.95833 7.175 1.175C7.95833 0.391667 8.9 0 10 0C11.1 0 12.0417 0.391667 12.825 1.175C13.6083 1.95833 14 2.9 14 4H16C16.55 4 17.021 4.196 17.413 4.588C17.8043 4.97933 18 5.45 18 6V18C18 18.55 17.8043 19.021 17.413 19.413C17.021 19.8043 16.55 20 16 20H4ZM4 18H16V6H14V8C14 8.28333 13.9043 8.52067 13.713 8.712C13.521 8.904 13.2833 9 13 9C12.7167 9 12.4793 8.904 12.288 8.712C12.096 8.52067 12 8.28333 12 8V6H8V8C8 8.28333 7.90433 8.52067 7.713 8.712C7.521 8.904 7.28333 9 7 9C6.71667 9 6.47933 8.904 6.288 8.712C6.096 8.52067 6 8.28333 6 8V6H4V18ZM8 4H12C12 3.45 11.8043 2.97933 11.413 2.588C11.021 2.196 10.55 2 10 2C9.45 2 8.97933 2.196 8.588 2.588C8.196 2.97933 8 3.45 8 4Z" fill="black"/>
<path d="M10 17C10 19.7614 7.76142 22 5 22C2.23858 22 0 19.7614 0 17C0 14.2386 2.23858 12 5 12C7.76142 12 10 14.2386 10 17Z" fill="#43944F"/>
<path d="M6.48438 19.1211V20H2.59375V19.25L4.43359 17.2773C4.61849 17.0716 4.76432 16.8906 4.87109 16.7344C4.97786 16.5755 5.05469 16.4336 5.10156 16.3086C5.15104 16.181 5.17578 16.0599 5.17578 15.9453C5.17578 15.7734 5.14714 15.6263 5.08984 15.5039C5.03255 15.3789 4.94792 15.2826 4.83594 15.2148C4.72656 15.1471 4.59115 15.1133 4.42969 15.1133C4.25781 15.1133 4.10938 15.1549 3.98438 15.2383C3.86198 15.3216 3.76823 15.4375 3.70312 15.5859C3.64062 15.7344 3.60938 15.9023 3.60938 16.0898H2.48047C2.48047 15.7513 2.5612 15.4414 2.72266 15.1602C2.88411 14.8763 3.11198 14.651 3.40625 14.4844C3.70052 14.3151 4.04948 14.2305 4.45312 14.2305C4.85156 14.2305 5.1875 14.2956 5.46094 14.4258C5.73698 14.5534 5.94531 14.7383 6.08594 14.9805C6.22917 15.2201 6.30078 15.5065 6.30078 15.8398C6.30078 16.0273 6.27083 16.2109 6.21094 16.3906C6.15104 16.5677 6.0651 16.7448 5.95312 16.9219C5.84375 17.0964 5.71094 17.2734 5.55469 17.4531C5.39844 17.6328 5.22526 17.819 5.03516 18.0117L4.04688 19.1211H6.48438Z" fill="white"/>
</svg>
