<svg width="18" height="22" viewBox="0 0 18 22" fill="none" xmlns="http://www.w3.org/2000/svg">
<mask id="mask0_0_1" style="mask-type:alpha" maskUnits="userSpaceOnUse" x="0" y="0" width="18" height="22">
<rect width="18" height="22" fill="#D9D9D9"/>
</mask>
<g mask="url(#mask0_0_1)">
<path d="M4 20C3.45 20 2.97933 19.8043 2.588 19.413C2.196 19.021 2 18.55 2 18V6C2 5.45 2.196 4.97933 2.588 4.588C2.97933 4.196 3.45 4 4 4H6C6 2.9 6.39167 1.95833 7.175 1.175C7.95833 0.391667 8.9 0 10 0C11.1 0 12.0417 0.391667 12.825 1.175C13.6083 1.95833 14 2.9 14 4H16C16.55 4 17.021 4.196 17.413 4.588C17.8043 4.97933 18 5.45 18 6V18C18 18.55 17.8043 19.021 17.413 19.413C17.021 19.8043 16.55 20 16 20H4ZM4 18H16V6H14V8C14 8.28333 13.9043 8.52067 13.713 8.712C13.521 8.904 13.2833 9 13 9C12.7167 9 12.4793 8.904 12.288 8.712C12.096 8.52067 12 8.28333 12 8V6H8V8C8 8.28333 7.90433 8.52067 7.713 8.712C7.521 8.904 7.28333 9 7 9C6.71667 9 6.47933 8.904 6.288 8.712C6.096 8.52067 6 8.28333 6 8V6H4V18ZM8 4H12C12 3.45 11.8043 2.97933 11.413 2.588C11.021 2.196 10.55 2 10 2C9.45 2 8.97933 2.196 8.588 2.588C8.196 2.97933 8 3.45 8 4Z" fill="black"/>
<path d="M10 17C10 19.7614 7.76142 22 5 22C2.23858 22 0 19.7614 0 17C0 14.2386 2.23858 12 5 12C7.76142 12 10 14.2386 10 17Z" fill="#43944F"/>
<path d="M5.49609 14.2539H5.66016V15.1523H5.59375C5.29688 15.1523 5.03255 15.1966 4.80078 15.2852C4.56901 15.3737 4.3724 15.5 4.21094 15.6641C4.05208 15.8255 3.92969 16.0208 3.84375 16.25C3.76042 16.4792 3.71875 16.7357 3.71875 17.0195V17.9648C3.71875 18.168 3.73828 18.3477 3.77734 18.5039C3.81901 18.6576 3.8776 18.7865 3.95312 18.8906C4.03125 18.9922 4.1224 19.069 4.22656 19.1211C4.33073 19.1706 4.44792 19.1953 4.57812 19.1953C4.70052 19.1953 4.8112 19.1693 4.91016 19.1172C5.01172 19.0651 5.09766 18.9922 5.16797 18.8984C5.24089 18.8021 5.29557 18.6901 5.33203 18.5625C5.37109 18.4323 5.39062 18.2904 5.39062 18.1367C5.39062 17.9831 5.37109 17.8411 5.33203 17.7109C5.29557 17.5807 5.24089 17.4688 5.16797 17.375C5.09505 17.2786 5.00651 17.2044 4.90234 17.1523C4.79818 17.1003 4.68099 17.0742 4.55078 17.0742C4.3737 17.0742 4.21745 17.1159 4.08203 17.1992C3.94922 17.2799 3.84505 17.3841 3.76953 17.5117C3.69401 17.6393 3.65365 17.7734 3.64844 17.9141L3.30859 17.6953C3.31641 17.4948 3.35807 17.3047 3.43359 17.125C3.51172 16.9453 3.61849 16.7865 3.75391 16.6484C3.89193 16.5078 4.05729 16.3984 4.25 16.3203C4.44271 16.2396 4.66016 16.1992 4.90234 16.1992C5.16797 16.1992 5.40104 16.25 5.60156 16.3516C5.80469 16.4531 5.97396 16.5924 6.10938 16.7695C6.24479 16.9466 6.34635 17.151 6.41406 17.3828C6.48177 17.6146 6.51562 17.862 6.51562 18.125C6.51562 18.401 6.47005 18.6576 6.37891 18.8945C6.29036 19.1315 6.16146 19.3385 5.99219 19.5156C5.82552 19.6927 5.625 19.8307 5.39062 19.9297C5.15625 20.0286 4.89323 20.0781 4.60156 20.0781C4.29948 20.0781 4.02474 20.0234 3.77734 19.9141C3.53255 19.8021 3.32161 19.6458 3.14453 19.4453C2.96745 19.2448 2.83073 19.0065 2.73438 18.7305C2.64062 18.4544 2.59375 18.1523 2.59375 17.8242V17.3867C2.59375 16.9284 2.66016 16.5091 2.79297 16.1289C2.92839 15.7461 3.1224 15.4154 3.375 15.1367C3.6276 14.8555 3.93229 14.638 4.28906 14.4844C4.64583 14.3307 5.04818 14.2539 5.49609 14.2539Z" fill="white"/>
</g>
</svg>
