<svg width="18" height="22" viewBox="0 0 18 22" fill="none" xmlns="http://www.w3.org/2000/svg">
<mask id="mask0_0_1" style="mask-type:alpha" maskUnits="userSpaceOnUse" x="0" y="0" width="18" height="22">
<rect width="18" height="22" fill="#D9D9D9"/>
</mask>
<g mask="url(#mask0_0_1)">
<path d="M4 20C3.45 20 2.97933 19.8043 2.588 19.413C2.196 19.021 2 18.55 2 18V6C2 5.45 2.196 4.97933 2.588 4.588C2.97933 4.196 3.45 4 4 4H6C6 2.9 6.39167 1.95833 7.175 1.175C7.95833 0.391667 8.9 0 10 0C11.1 0 12.0417 0.391667 12.825 1.175C13.6083 1.95833 14 2.9 14 4H16C16.55 4 17.021 4.196 17.413 4.588C17.8043 4.97933 18 5.45 18 6V18C18 18.55 17.8043 19.021 17.413 19.413C17.021 19.8043 16.55 20 16 20H4ZM4 18H16V6H14V8C14 8.28333 13.9043 8.52067 13.713 8.712C13.521 8.904 13.2833 9 13 9C12.7167 9 12.4793 8.904 12.288 8.712C12.096 8.52067 12 8.28333 12 8V6H8V8C8 8.28333 7.90433 8.52067 7.713 8.712C7.521 8.904 7.28333 9 7 9C6.71667 9 6.47933 8.904 6.288 8.712C6.096 8.52067 6 8.28333 6 8V6H4V18ZM8 4H12C12 3.45 11.8043 2.97933 11.413 2.588C11.021 2.196 10.55 2 10 2C9.45 2 8.97933 2.196 8.588 2.588C8.196 2.97933 8 3.45 8 4Z" fill="black"/>
<path d="M10 17C10 19.7614 7.76142 22 5 22C2.23858 22 0 19.7614 0 17C0 14.2386 2.23858 12 5 12C7.76142 12 10 14.2386 10 17Z" fill="#43944F"/>
<path d="M3.65234 17.4102L2.75391 17.1953L3.07812 14.3125H6.27344V15.2227H4.00391L3.86328 16.4844C3.9388 16.4401 4.05339 16.3932 4.20703 16.3438C4.36068 16.2917 4.53255 16.2656 4.72266 16.2656C4.9987 16.2656 5.24349 16.3086 5.45703 16.3945C5.67057 16.4805 5.85156 16.6055 6 16.7695C6.15104 16.9336 6.26562 17.1341 6.34375 17.3711C6.42188 17.6081 6.46094 17.8763 6.46094 18.1758C6.46094 18.4284 6.42188 18.6693 6.34375 18.8984C6.26562 19.125 6.14714 19.3281 5.98828 19.5078C5.82943 19.6849 5.63021 19.8242 5.39062 19.9258C5.15104 20.0273 4.86719 20.0781 4.53906 20.0781C4.29427 20.0781 4.05729 20.0417 3.82812 19.9688C3.60156 19.8958 3.39714 19.7878 3.21484 19.6445C3.03516 19.5013 2.89062 19.3281 2.78125 19.125C2.67448 18.9193 2.61849 18.6849 2.61328 18.4219H3.73047C3.74609 18.5833 3.78776 18.7227 3.85547 18.8398C3.92578 18.9544 4.01823 19.043 4.13281 19.1055C4.2474 19.168 4.38151 19.1992 4.53516 19.1992C4.67839 19.1992 4.80078 19.1719 4.90234 19.1172C5.00391 19.0625 5.08594 18.987 5.14844 18.8906C5.21094 18.7917 5.25651 18.6771 5.28516 18.5469C5.31641 18.4141 5.33203 18.2708 5.33203 18.1172C5.33203 17.9635 5.3138 17.8242 5.27734 17.6992C5.24089 17.5742 5.1849 17.4661 5.10938 17.375C5.03385 17.2839 4.9375 17.2135 4.82031 17.1641C4.70573 17.1146 4.57161 17.0898 4.41797 17.0898C4.20964 17.0898 4.04818 17.1224 3.93359 17.1875C3.82161 17.2526 3.72786 17.3268 3.65234 17.4102Z" fill="white"/>
</g>
</svg>
