<svg width="18" height="22" viewBox="0 0 18 22" fill="none" xmlns="http://www.w3.org/2000/svg">
<mask id="mask0_0_1" style="mask-type:alpha" maskUnits="userSpaceOnUse" x="0" y="0" width="18" height="22">
<rect width="18" height="22" fill="#D9D9D9"/>
</mask>
<g mask="url(#mask0_0_1)">
<path d="M4 20C3.45 20 2.97933 19.8043 2.588 19.413C2.196 19.021 2 18.55 2 18V6C2 5.45 2.196 4.97933 2.588 4.588C2.97933 4.196 3.45 4 4 4H6C6 2.9 6.39167 1.95833 7.175 1.175C7.95833 0.391667 8.9 0 10 0C11.1 0 12.0417 0.391667 12.825 1.175C13.6083 1.95833 14 2.9 14 4H16C16.55 4 17.021 4.196 17.413 4.588C17.8043 4.97933 18 5.45 18 6V18C18 18.55 17.8043 19.021 17.413 19.413C17.021 19.8043 16.55 20 16 20H4ZM4 18H16V6H14V8C14 8.28333 13.9043 8.52067 13.713 8.712C13.521 8.904 13.2833 9 13 9C12.7167 9 12.4793 8.904 12.288 8.712C12.096 8.52067 12 8.28333 12 8V6H8V8C8 8.28333 7.90433 8.52067 7.713 8.712C7.521 8.904 7.28333 9 7 9C6.71667 9 6.47933 8.904 6.288 8.712C6.096 8.52067 6 8.28333 6 8V6H4V18ZM8 4H12C12 3.45 11.8043 2.97933 11.413 2.588C11.021 2.196 10.55 2 10 2C9.45 2 8.97933 2.196 8.588 2.588C8.196 2.97933 8 3.45 8 4Z" fill="black"/>
<path d="M10 17C10 19.7614 7.76142 22 5 22C2.23858 22 0 19.7614 0 17C0 14.2386 2.23858 12 5 12C7.76142 12 10 14.2386 10 17Z" fill="#43944F"/>
<path d="M3.74609 16.668H4.34766C4.54036 16.668 4.69922 16.6354 4.82422 16.5703C4.94922 16.5026 5.04167 16.4089 5.10156 16.2891C5.16406 16.1667 5.19531 16.0247 5.19531 15.8633C5.19531 15.7174 5.16667 15.5885 5.10938 15.4766C5.05469 15.362 4.97005 15.2734 4.85547 15.2109C4.74089 15.1458 4.59635 15.1133 4.42188 15.1133C4.28385 15.1133 4.15625 15.1406 4.03906 15.1953C3.92188 15.25 3.82812 15.3268 3.75781 15.4258C3.6875 15.5247 3.65234 15.6445 3.65234 15.7852H2.52344C2.52344 15.4727 2.60677 15.2005 2.77344 14.9688C2.94271 14.737 3.16927 14.556 3.45312 14.4258C3.73698 14.2956 4.04948 14.2305 4.39062 14.2305C4.77604 14.2305 5.11328 14.293 5.40234 14.418C5.69141 14.5404 5.91667 14.7214 6.07812 14.9609C6.23958 15.2005 6.32031 15.4974 6.32031 15.8516C6.32031 16.0312 6.27865 16.2057 6.19531 16.375C6.11198 16.5417 5.99219 16.6927 5.83594 16.8281C5.68229 16.9609 5.49479 17.0677 5.27344 17.1484C5.05208 17.2266 4.80339 17.2656 4.52734 17.2656H3.74609V16.668ZM3.74609 17.5234V16.9414H4.52734C4.83724 16.9414 5.10938 16.9766 5.34375 17.0469C5.57812 17.1172 5.77474 17.2188 5.93359 17.3516C6.09245 17.4818 6.21224 17.6367 6.29297 17.8164C6.3737 17.9935 6.41406 18.1901 6.41406 18.4062C6.41406 18.6719 6.36328 18.9089 6.26172 19.1172C6.16016 19.3229 6.01693 19.4974 5.83203 19.6406C5.64974 19.7839 5.4362 19.8932 5.19141 19.9688C4.94661 20.0417 4.67969 20.0781 4.39062 20.0781C4.15104 20.0781 3.91536 20.0456 3.68359 19.9805C3.45443 19.9128 3.24609 19.8125 3.05859 19.6797C2.8737 19.5443 2.72526 19.375 2.61328 19.1719C2.50391 18.9661 2.44922 18.7227 2.44922 18.4414H3.57812C3.57812 18.5872 3.61458 18.7174 3.6875 18.832C3.76042 18.9466 3.86068 19.0365 3.98828 19.1016C4.11849 19.1667 4.26302 19.1992 4.42188 19.1992C4.60156 19.1992 4.75521 19.1667 4.88281 19.1016C5.01302 19.0339 5.11198 18.9401 5.17969 18.8203C5.25 18.6979 5.28516 18.556 5.28516 18.3945C5.28516 18.1862 5.2474 18.0195 5.17188 17.8945C5.09635 17.7669 4.98828 17.6732 4.84766 17.6133C4.70703 17.5534 4.54036 17.5234 4.34766 17.5234H3.74609Z" fill="white"/>
</g>
</svg>
