<svg width="28" height="27" viewBox="0 0 28 27" fill="none" xmlns="http://www.w3.org/2000/svg">
<path d="M13.809 6.70383C10.1068 6.70383 7.10519 9.70547 7.10519 13.4077C7.10519 17.1098 10.1068 20.1115 13.809 20.1115C17.5112 20.1115 20.5128 17.1098 20.5128 13.4077C20.5128 9.70547 17.5112 6.70383 13.809 6.70383ZM13.809 16.7596C11.9604 16.7596 10.4571 15.2562 10.4571 13.4077C10.4571 11.5591 11.9604 10.0557 13.809 10.0557C15.6576 10.0557 17.1609 11.5591 17.1609 13.4077C17.1609 15.2562 15.6576 16.7596 13.809 16.7596ZM18.8369 0H8.78115C4.15048 0 0.401367 3.74912 0.401367 8.37978V18.4355C0.401367 23.0645 4.15048 26.8153 8.78115 26.8153H18.8369C23.4659 26.8153 27.2167 23.0645 27.2167 18.4355V8.37978C27.2167 3.74912 23.4659 0 18.8369 0ZM23.8648 18.4355C23.8648 21.2059 21.6072 23.4634 18.8369 23.4634H8.78115C6.01079 23.4634 3.75328 21.2059 3.75328 18.4355V8.37978C3.75328 5.60943 6.01079 3.35191 8.78115 3.35191H18.8369C21.6072 3.35191 23.8648 5.60943 23.8648 8.37978V18.4355ZM20.5128 5.02787C19.586 5.02787 18.8369 5.77702 18.8369 6.70383C18.8369 7.63063 19.586 8.37978 20.5128 8.37978C21.4397 8.37978 22.1888 7.63063 22.1888 6.70383C22.1888 5.77702 21.4397 5.02787 20.5128 5.02787Z" fill="white"/>
</svg>
