<svg width="19" height="19" viewBox="0 0 19 19" fill="none" xmlns="http://www.w3.org/2000/svg">
<path d="M16.6205 11.1283C16.6342 11.1145 16.645 11.0989 16.6562 11.0837L16.6606 11.0881L18.1277 9.62113C18.2971 9.45166 18.2858 9.16496 18.1018 8.98099L18.101 8.98022L9.51948 0.398383C9.51901 0.397921 9.51855 0.397461 9.51809 0.396999C9.33427 0.213181 9.04772 0.201688 8.87825 0.371156L7.37093 1.87848C7.20146 2.04794 7.2131 2.33436 7.39691 2.51818C7.39738 2.51864 7.39798 2.51896 7.39844 2.51942L15.98 11.1013C15.9803 11.1016 15.9805 11.102 15.9806 11.1022C16.1646 11.2861 16.4511 11.2976 16.6205 11.1283Z" fill="black"/>
<path d="M9.51932 18.101L18.101 9.51928L18.1019 9.51865C18.2859 9.33468 18.2974 9.04812 18.1281 8.87879C18.1143 8.86503 18.0986 8.85429 18.0834 8.84309L18.0879 8.83863L16.6207 7.37147C16.4513 7.20201 16.1647 7.2135 15.9807 7.39747L15.98 7.39824L7.39814 15.9798L7.39675 15.9812C7.21294 16.165 7.20145 16.4515 7.37091 16.621L8.87795 18.1281C9.04742 18.2975 9.33383 18.2859 9.51765 18.1021L9.51932 18.101Z" fill="black"/>
</svg>
