<svg width="19" height="19" viewBox="0 0 19 19" fill="none" xmlns="http://www.w3.org/2000/svg">
<path d="M1.87861 7.37121C1.86484 7.38497 1.85411 7.40064 1.84291 7.41584L1.83844 7.41137L0.371432 8.87839C0.201964 9.04785 0.213314 9.33455 0.397286 9.51852L0.398056 9.51929L8.97961 18.1011C8.98007 18.1016 8.98053 18.1021 8.98099 18.1025C9.16481 18.2863 9.45137 18.2978 9.62083 18.1284L11.1282 16.621C11.2976 16.4516 11.286 16.1652 11.1022 15.9813C11.1017 15.9809 11.1011 15.9806 11.1006 15.9801L2.51909 7.39826C2.51878 7.39795 2.51862 7.3975 2.51846 7.39734C2.33449 7.21337 2.04794 7.20188 1.87861 7.37121Z" fill="black"/>
<path d="M8.97975 0.398543L0.398058 8.98024L0.397146 8.98086C0.213175 9.16484 0.201683 9.45139 0.371008 9.62072C0.384776 9.63449 0.400438 9.64522 0.41564 9.65642L0.411175 9.66088L1.87833 11.128C2.0478 11.2975 2.33435 11.286 2.51832 11.102L2.51909 11.1013L11.1009 2.51972L11.1023 2.51834C11.2861 2.33452 11.2976 2.04796 11.1282 1.87849L9.62112 0.371458C9.45165 0.201991 9.16524 0.213624 8.98142 0.397442L8.97975 0.398543Z" fill="black"/>
</svg>
