<svg width="27" height="27" viewBox="0 0 27 27" fill="none" xmlns="http://www.w3.org/2000/svg">
<path d="M24.7847 0H1.4477C0.647612 0 0 0.647612 0 1.4477V24.7847C0 25.5848 0.647612 26.2324 1.4477 26.2324H14.013V16.087H10.6061V12.1177H14.013V9.19444C14.013 5.80555 16.0821 3.96109 19.1054 3.96109C20.5531 3.96109 21.7975 4.0693 22.1598 4.11684V7.65821L20.076 7.65985C18.4315 7.65985 18.1134 8.4419 18.1134 9.58793V12.1177H22.045L21.5335 16.0886H18.1134V26.2324H24.7863C25.5848 26.2324 26.2324 25.5848 26.2324 24.7847V1.4477C26.2324 0.647612 25.5848 0 24.7847 0V0Z" fill="white"/>
</svg>
