<svg width="20" height="20" viewBox="0 0 20 20" fill="none" xmlns="http://www.w3.org/2000/svg">
<g clip-path="url(#clip0_254_102)">
<mask id="mask0_254_102" style="mask-type:alpha" maskUnits="userSpaceOnUse" x="-2" y="-2" width="24" height="24">
<rect x="-2" y="-2" width="24" height="24" fill="#D9D9D9"/>
</mask>
<g mask="url(#mask0_254_102)">
<path d="M4 20C3.45 20 2.97933 19.8043 2.588 19.413C2.196 19.021 2 18.55 2 18V6C2 5.45 2.196 4.97933 2.588 4.588C2.97933 4.196 3.45 4 4 4H6C6 2.9 6.39167 1.95833 7.175 1.175C7.95833 0.391667 8.9 0 10 0C11.1 0 12.0417 0.391667 12.825 1.175C13.6083 1.95833 14 2.9 14 4H16C16.55 4 17.021 4.196 17.413 4.588C17.8043 4.97933 18 5.45 18 6V18C18 18.55 17.8043 19.021 17.413 19.413C17.021 19.8043 16.55 20 16 20H4ZM4 18H16V6H14V8C14 8.28333 13.9043 8.52067 13.713 8.712C13.521 8.904 13.2833 9 13 9C12.7167 9 12.4793 8.904 12.288 8.712C12.096 8.52067 12 8.28333 12 8V6H8V8C8 8.28333 7.90433 8.52067 7.713 8.712C7.521 8.904 7.28333 9 7 9C6.71667 9 6.47933 8.904 6.288 8.712C6.096 8.52067 6 8.28333 6 8V6H4V18ZM8 4H12C12 3.45 11.8043 2.97933 11.413 2.588C11.021 2.196 10.55 2 10 2C9.45 2 8.97933 2.196 8.588 2.588C8.196 2.97933 8 3.45 8 4Z" fill="black"/>
</g>
</g>
<defs>
<clipPath id="clip0_254_102">
<rect width="20" height="20" fill="white"/>
</clipPath>
</defs>
</svg>
