<svg width="34" height="27" viewBox="0 0 34 27" fill="none" xmlns="http://www.w3.org/2000/svg">
<path d="M33.4764 3.17379C32.2618 3.71203 30.9584 4.07705 29.5891 4.23997C30.9873 3.4027 32.0597 2.07461 32.5649 0.494938C31.2575 1.27034 29.8077 1.83333 28.2651 2.13854C27.0299 0.822834 25.2708 0 23.324 0C19.5852 0 16.5537 3.03149 16.5537 6.76827C16.5537 7.29827 16.6135 7.81589 16.729 8.31083C11.1032 8.0283 6.11462 5.33295 2.77585 1.23734C2.1943 2.23753 1.86022 3.40063 1.86022 4.6421C1.86022 6.99099 3.05425 9.06355 4.87109 10.2761C3.76366 10.2411 2.72017 9.93587 1.8066 9.42856V9.51311C1.8066 12.7921 4.14105 15.5287 7.23648 16.1515C6.6673 16.3061 6.06925 16.3907 5.45264 16.3907C5.01544 16.3907 4.59268 16.3474 4.17817 16.269C5.04019 18.9582 7.53963 20.9152 10.501 20.9709C8.18511 22.7857 5.26498 23.8684 2.09325 23.8684C1.54676 23.8684 1.00851 23.8354 0.478516 23.7735C3.47495 25.6935 7.03231 26.8153 10.8557 26.8153C23.3075 26.8153 30.117 16.5 30.117 7.55399C30.117 7.26115 30.1108 6.96831 30.0964 6.67753C31.4204 5.72272 32.569 4.53074 33.4764 3.17379Z" fill="white"/>
</svg>
